STARTFONT 2.1
FONT -sun-conga-bold-r-normal--14-140-75-75-p-97-adobe-fontspecific
SIZE 14 75 75
FONTBOUNDINGBOX 23 17 -4 -3

STARTPROPERTIES 28
FOUNDRY "sun"
FAMILY_NAME "conga"
WEIGHT_NAME "bold"
SLANT "r"
SETWIDTH_NAME "normal"
ADD_STYLE_NAME ""
PIXEL_SIZE 15
POINT_SIZE 140
RESOLUTION_X 75
RESOLUTION_Y 75
SPACING "p"
AVERAGE_WIDTH 97
CHARSET_REGISTRY "adobe"
CHARSET_ENCODING "fontspecific"
COPYRIGHT "© 1999 Sun Microsystems, Inc."
RAW_PIXELSIZE 1000
RAW_POINTSIZE 964
RAW_ASCENT 928
RAW_DESCENT 219
RAW_AVERAGE_WIDTH 6696
FACE_NAME "CongaBoldrg"
_XMBDFED_INFO "Edited with xmbdfed 2.4."
WEIGHT 10
X_HEIGHT -1
QUAD_WIDTH 10
DEFAULT_CHAR 4
FONT_DESCENT 3
FONT_ASCENT 14
ENDPROPERTIES

CHARS 203

STARTCHAR char32
ENCODING 32
SWIDTH 43 0
DWIDTH 7 0
BBX 0 0 0 0
BITMAP
ENDCHAR

STARTCHAR char33
ENCODING 33
SWIDTH 24 0
DWIDTH 4 0
BBX 2 10 1 0
BITMAP
C0
C0
C0
C0
80
80
C0
00
00
C0
ENDCHAR

STARTCHAR char34
ENCODING 34
SWIDTH 30 0
DWIDTH 5 0
BBX 5 3 0 7
BITMAP
D8
48
48
ENDCHAR

STARTCHAR char35
ENCODING 35
SWIDTH 55 0
DWIDTH 9 0
BBX 8 11 0 0
BITMAP
12
12
14
7F
24
24
24
FE
24
28
28
ENDCHAR

STARTCHAR char36
ENCODING 36
SWIDTH 11 0
DWIDTH 12 0
BBX 10 13 0 -1
BITMAP
0C00
0C00
3FC0
64C0
C400
CC00
3F80
05C0
04C0
44C0
E780
7F00
0400
ENDCHAR

STARTCHAR char37
ENCODING 37
SWIDTH 48 0
DWIDTH 18 0
BBX 17 10 -1 0
BITMAP
7E0800
C31000
C33000
C36E00
C35300
7EB180
013180
023180
041100
040E00
ENDCHAR

STARTCHAR char38
ENCODING 38
SWIDTH 17 0
DWIDTH 13 0
BBX 11 10 0 0
BITMAP
3E00
6300
6300
7320
3E20
6340
C380
C380
63E0
3C20
ENDCHAR

STARTCHAR char39
ENCODING 39
SWIDTH 18 0
DWIDTH 3 0
BBX 2 3 0 9
BITMAP
80
80
C0
ENDCHAR

STARTCHAR char40
ENCODING 40
SWIDTH 30 0
DWIDTH 5 0
BBX 4 10 0 0
BITMAP
10
20
40
C0
C0
C0
C0
60
20
10
ENDCHAR

STARTCHAR char41
ENCODING 41
SWIDTH 30 0
DWIDTH 5 0
BBX 4 10 0 0
BITMAP
C0
60
20
30
30
30
30
20
60
C0
ENDCHAR

STARTCHAR char42
ENCODING 42
SWIDTH 49 0
DWIDTH 8 0
BBX 6 6 0 4
BITMAP
10
54
FC
30
6C
28
ENDCHAR

STARTCHAR char43
ENCODING 43
SWIDTH 5 0
DWIDTH 11 0
BBX 9 8 0 0
BITMAP
0C00
0C00
0C00
FF80
0C00
0C00
0C00
0C00
ENDCHAR

STARTCHAR char44
ENCODING 44
SWIDTH 18 0
DWIDTH 3 0
BBX 2 3 0 -2
BITMAP
C0
40
40
ENDCHAR

STARTCHAR char45
ENCODING 45
SWIDTH 30 0
DWIDTH 5 0
BBX 4 1 0 4
BITMAP
F0
ENDCHAR

STARTCHAR char46
ENCODING 46
SWIDTH 18 0
DWIDTH 3 0
BBX 2 1 0 0
BITMAP
C0
ENDCHAR

STARTCHAR char47
ENCODING 47
SWIDTH 5 0
DWIDTH 11 0
BBX 9 10 0 0
BITMAP
0080
0100
0200
0600
0C00
0800
1000
2000
4000
8000
ENDCHAR

STARTCHAR char48
ENCODING 48
SWIDTH 17 0
DWIDTH 13 0
BBX 11 10 0 0
BITMAP
1F00
71C0
60C0
C060
C060
C060
C060
60C0
3180
1F00
ENDCHAR

STARTCHAR char49
ENCODING 49
SWIDTH 17 0
DWIDTH 13 0
BBX 3 10 4 0
BITMAP
60
E0
E0
60
60
60
60
60
60
60
ENDCHAR

STARTCHAR char50
ENCODING 50
SWIDTH 17 0
DWIDTH 13 0
BBX 10 10 1 0
BITMAP
1E00
6380
4180
0180
0700
1C00
3000
6000
C040
FF80
ENDCHAR

STARTCHAR char51
ENCODING 51
SWIDTH 17 0
DWIDTH 13 0
BBX 9 10 1 0
BITMAP
3E00
E380
4180
0180
1F00
1180
0180
8180
E380
3E00
ENDCHAR

STARTCHAR char52
ENCODING 52
SWIDTH 17 0
DWIDTH 13 0
BBX 10 10 1 0
BITMAP
0700
0F00
1B00
1300
2300
6300
C340
FF80
0300
0380
ENDCHAR

STARTCHAR char53
ENCODING 53
SWIDTH 17 0
DWIDTH 13 0
BBX 10 11 0 0
BITMAP
0080
7F80
6040
6000
7F00
7180
20C0
00C0
40C0
7180
1F00
ENDCHAR

STARTCHAR char54
ENCODING 54
SWIDTH 17 0
DWIDTH 13 0
BBX 9 10 1 0
BITMAP
3E00
6180
4080
DE00
F300
C180
C180
4180
6300
3E00
ENDCHAR

STARTCHAR char55
ENCODING 55
SWIDTH 17 0
DWIDTH 13 0
BBX 9 11 1 0
BITMAP
0080
FF80
8180
0300
0200
0600
0400
0C00
1800
1000
7800
ENDCHAR

STARTCHAR char56
ENCODING 56
SWIDTH 17 0
DWIDTH 13 0
BBX 10 10 1 0
BITMAP
3F00
C180
C1C0
E180
7F00
C1C0
C0C0
C0C0
E180
3E00
ENDCHAR

STARTCHAR char57
ENCODING 57
SWIDTH 17 0
DWIDTH 13 0
BBX 9 10 1 0
BITMAP
3E00
4300
C180
C180
C380
3D80
0180
4100
E300
3C00
ENDCHAR

STARTCHAR char58
ENCODING 58
SWIDTH 24 0
DWIDTH 4 0
BBX 2 6 1 0
BITMAP
C0
00
00
00
00
C0
ENDCHAR

STARTCHAR char59
ENCODING 59
SWIDTH 24 0
DWIDTH 4 0
BBX 2 9 1 -2
BITMAP
40
C0
00
00
00
C0
C0
40
40
ENDCHAR

STARTCHAR char60
ENCODING 60
SWIDTH 61 0
DWIDTH 10 0
BBX 7 7 1 0
BITMAP
06
18
E0
80
60
1C
02
ENDCHAR

STARTCHAR char61
ENCODING 61
SWIDTH 5 0
DWIDTH 11 0
BBX 9 4 0 2
BITMAP
FF80
0000
0000
FF80
ENDCHAR

STARTCHAR char62
ENCODING 62
SWIDTH 61 0
DWIDTH 10 0
BBX 7 7 1 0
BITMAP
C0
30
0C
02
1C
60
80
ENDCHAR

STARTCHAR char63
ENCODING 63
SWIDTH 49 0
DWIDTH 8 0
BBX 6 10 1 0
BITMAP
78
CC
0C
08
18
10
30
00
00
38
ENDCHAR

STARTCHAR char64
ENCODING 64
SWIDTH 36 0
DWIDTH 16 0
BBX 11 11 2 0
BITMAP
0F00
3180
6040
4FE0
D160
F160
F340
F240
7F80
30C0
1F00
ENDCHAR

STARTCHAR char65
ENCODING 65
SWIDTH 17 0
DWIDTH 13 0
BBX 12 10 0 0
BITMAP
0F00
0E00
1B00
1300
1100
3180
3F80
60C0
4040
E070
ENDCHAR

STARTCHAR char66
ENCODING 66
SWIDTH 17 0
DWIDTH 13 0
BBX 10 10 1 0
BITMAP
FF80
C1C0
C0C0
C080
FF00
C180
C0C0
C0C0
C1C0
FF00
ENDCHAR

STARTCHAR char67
ENCODING 67
SWIDTH 23 0
DWIDTH 14 0
BBX 12 10 0 0
BITMAP
1FC0
3060
6020
C000
C000
C000
C000
6020
3060
1F80
ENDCHAR

STARTCHAR char68
ENCODING 68
SWIDTH 17 0
DWIDTH 13 0
BBX 11 10 1 0
BITMAP
FF00
C1C0
C0E0
C060
C060
C060
C060
C0C0
C1C0
FF00
ENDCHAR

STARTCHAR char69
ENCODING 69
SWIDTH 11 0
DWIDTH 12 0
BBX 10 10 1 0
BITMAP
FF80
C000
C000
C000
FE00
C100
C000
C000
C040
FF80
ENDCHAR

STARTCHAR char70
ENCODING 70
SWIDTH 11 0
DWIDTH 12 0
BBX 10 10 1 0
BITMAP
FFC0
C000
C000
C000
FE00
C200
C000
C000
C000
E000
ENDCHAR

STARTCHAR char71
ENCODING 71
SWIDTH 23 0
DWIDTH 14 0
BBX 12 10 0 0
BITMAP
1FC0
3060
6020
C000
C200
C3F0
C030
6030
3070
1F80
ENDCHAR

STARTCHAR char72
ENCODING 72
SWIDTH 17 0
DWIDTH 13 0
BBX 11 10 1 0
BITMAP
E0E0
C0C0
C0C0
C0C0
FFC0
C0C0
C0C0
C0C0
C0C0
E0E0
ENDCHAR

STARTCHAR char73
ENCODING 73
SWIDTH 24 0
DWIDTH 4 0
BBX 3 10 1 0
BITMAP
E0
C0
C0
C0
C0
C0
C0
C0
C0
E0
ENDCHAR

STARTCHAR char74
ENCODING 74
SWIDTH 61 0
DWIDTH 10 0
BBX 9 10 0 0
BITMAP
0380
0300
0300
0300
0300
0300
0300
4300
C600
7C00
ENDCHAR

STARTCHAR char75
ENCODING 75
SWIDTH 11 0
DWIDTH 12 0
BBX 11 10 1 0
BITMAP
E1C0
C600
CC00
D800
F800
EC00
C600
C300
C180
E1A0
ENDCHAR

STARTCHAR char76
ENCODING 76
SWIDTH 11 0
DWIDTH 12 0
BBX 10 10 1 0
BITMAP
E000
C000
C000
C000
C000
C000
C000
C000
C040
FF80
ENDCHAR

STARTCHAR char77
ENCODING 77
SWIDTH 29 0
DWIDTH 15 0
BBX 12 10 1 0
BITMAP
E070
E0E0
E0E0
D1E0
D160
DB60
CA60
CE60
C460
E470
ENDCHAR

STARTCHAR char78
ENCODING 78
SWIDTH 23 0
DWIDTH 14 0
BBX 11 10 1 0
BITMAP
F0E0
E0C0
D0C0
C8C0
CCC0
C4C0
C2C0
C1C0
C0C0
A0E0
ENDCHAR

STARTCHAR char79
ENCODING 79
SWIDTH 29 0
DWIDTH 15 0
BBX 13 10 0 0
BITMAP
1FC0
3060
6030
C018
C018
C018
C018
6030
30E0
1F80
ENDCHAR

STARTCHAR char80
ENCODING 80
SWIDTH 11 0
DWIDTH 12 0
BBX 10 10 1 0
BITMAP
FF80
C1C0
C0C0
C0C0
FF80
C000
C000
C000
C000
E000
ENDCHAR

STARTCHAR char81
ENCODING 81
SWIDTH 23 0
DWIDTH 14 0
BBX 12 11 0 -1
BITMAP
1F80
30E0
6060
C030
C030
C030
C030
6660
71C0
1F80
0060
ENDCHAR

STARTCHAR char82
ENCODING 82
SWIDTH 11 0
DWIDTH 12 0
BBX 11 10 1 0
BITMAP
FF00
C1C0
C0C0
C0C0
FF80
C600
C300
C300
C180
E1E0
ENDCHAR

STARTCHAR char83
ENCODING 83
SWIDTH 17 0
DWIDTH 13 0
BBX 11 10 0 0
BITMAP
1F80
60E0
C040
E000
3FC0
00E0
0060
C060
E1C0
3F00
ENDCHAR

STARTCHAR char84
ENCODING 84
SWIDTH 11 0
DWIDTH 12 0
BBX 10 10 0 0
BITMAP
FFC0
0C00
0C00
0C00
0C00
0C00
0C00
0C00
0C00
0E00
ENDCHAR

STARTCHAR char85
ENCODING 85
SWIDTH 17 0
DWIDTH 13 0
BBX 12 10 0 0
BITMAP
7070
6040
6040
6040
6040
6040
6060
6060
30C0
1F80
ENDCHAR

STARTCHAR char86
ENCODING 86
SWIDTH 11 0
DWIDTH 12 0
BBX 12 10 0 0
BITMAP
E0F0
40C0
6080
2180
3100
1100
1B00
1A00
0E00
0E00
ENDCHAR

STARTCHAR char87
ENCODING 87
SWIDTH 42 0
DWIDTH 17 0
BBX 16 10 0 0
BITMAP
E3C7
4386
6284
62C4
26CC
2448
3468
1C78
1830
1C38
ENDCHAR

STARTCHAR char88
ENCODING 88
SWIDTH 5 0
DWIDTH 11 0
BBX 10 10 0 0
BITMAP
F1C0
2300
3200
1E00
0C00
1C00
1600
3300
6100
E1C0
ENDCHAR

STARTCHAR char89
ENCODING 89
SWIDTH 5 0
DWIDTH 11 0
BBX 11 10 0 0
BITMAP
E0E0
6180
3300
1600
1E00
0C00
0C00
0C00
0C00
0E00
ENDCHAR

STARTCHAR char90
ENCODING 90
SWIDTH 11 0
DWIDTH 12 0
BBX 11 11 0 0
BITMAP
8000
FF80
0180
0300
0600
0C00
0C00
1800
3000
6020
7FE0
ENDCHAR

STARTCHAR char91
ENCODING 91
SWIDTH 30 0
DWIDTH 5 0
BBX 3 11 1 0
BITMAP
20
E0
C0
C0
C0
C0
C0
C0
C0
C0
E0
ENDCHAR

STARTCHAR char92
ENCODING 92
SWIDTH 24 0
DWIDTH 4 0
BBX 4 11 0 0
BITMAP
80
80
80
40
40
40
20
20
20
10
10
ENDCHAR

STARTCHAR char93
ENCODING 93
SWIDTH 30 0
DWIDTH 5 0
BBX 4 11 0 0
BITMAP
80
F0
30
30
30
30
30
30
30
30
F0
ENDCHAR

STARTCHAR char94
ENCODING 94
SWIDTH 0 0
DWIDTH 0 0
BBX 4 2 -2 11
BITMAP
60
90
ENDCHAR

STARTCHAR char95
ENCODING 95
SWIDTH 55 0
DWIDTH 9 0
BBX 8 1 0 -2
BITMAP
FF
ENDCHAR

STARTCHAR char96
ENCODING 96
SWIDTH 0 0
DWIDTH 0 0
BBX 3 2 -2 9
BITMAP
40
40
ENDCHAR

STARTCHAR char97
ENCODING 97
SWIDTH 61 0
DWIDTH 10 0
BBX 9 9 0 0
BITMAP
1C00
1C00
1400
3600
2600
6200
7F00
4180
C180
ENDCHAR

STARTCHAR char98
ENCODING 98
SWIDTH 5 0
DWIDTH 11 0
BBX 8 9 1 0
BITMAP
FE
C3
C1
C3
FE
C3
C3
C3
FE
ENDCHAR

STARTCHAR char99
ENCODING 99
SWIDTH 5 0
DWIDTH 11 0
BBX 10 9 0 0
BITMAP
0F00
3180
6080
C000
C000
C000
4040
60C0
1F00
ENDCHAR

STARTCHAR char100
ENCODING 100
SWIDTH 5 0
DWIDTH 11 0
BBX 9 9 1 0
BITMAP
FE00
C300
C180
C180
C180
C180
C180
C300
FC00
ENDCHAR

STARTCHAR char101
ENCODING 101
SWIDTH 61 0
DWIDTH 10 0
BBX 8 9 1 0
BITMAP
FF
81
80
80
FC
C0
C0
C0
FF
ENDCHAR

STARTCHAR char102
ENCODING 102
SWIDTH 61 0
DWIDTH 10 0
BBX 8 9 1 0
BITMAP
FF
81
80
80
FC
80
C0
C0
E0
ENDCHAR

STARTCHAR char103
ENCODING 103
SWIDTH 11 0
DWIDTH 12 0
BBX 11 9 0 0
BITMAP
1F80
31C0
6080
C000
C420
C7C0
C0C0
61E0
1F00
ENDCHAR

STARTCHAR char104
ENCODING 104
SWIDTH 5 0
DWIDTH 11 0
BBX 8 9 1 0
BITMAP
C3
C1
C3
C3
FF
C3
C3
C3
E3
ENDCHAR

STARTCHAR char105
ENCODING 105
SWIDTH 24 0
DWIDTH 4 0
BBX 3 9 1 0
BITMAP
C0
C0
C0
C0
C0
C0
C0
C0
E0
ENDCHAR

STARTCHAR char106
ENCODING 106
SWIDTH 55 0
DWIDTH 9 0
BBX 7 9 0 0
BITMAP
06
06
06
06
06
06
06
46
7C
ENDCHAR

STARTCHAR char107
ENCODING 107
SWIDTH 61 0
DWIDTH 10 0
BBX 9 9 1 0
BITMAP
C700
C600
C800
9000
F800
C800
C400
C600
E380
ENDCHAR

STARTCHAR char108
ENCODING 108
SWIDTH 61 0
DWIDTH 10 0
BBX 8 9 1 0
BITMAP
C0
C0
C0
C0
C0
C0
C0
C0
FF
ENDCHAR

STARTCHAR char109
ENCODING 109
SWIDTH 17 0
DWIDTH 13 0
BBX 10 9 1 0
BITMAP
C180
C180
E380
E280
F780
D580
DD80
C980
A9C0
ENDCHAR

STARTCHAR char110
ENCODING 110
SWIDTH 11 0
DWIDTH 12 0
BBX 10 9 1 0
BITMAP
C180
C180
E180
D180
D980
8D80
8780
8380
81C0
ENDCHAR

STARTCHAR char111
ENCODING 111
SWIDTH 11 0
DWIDTH 12 0
BBX 11 9 0 0
BITMAP
1E00
3180
60C0
C060
C060
C060
4040
6180
1F00
ENDCHAR

STARTCHAR char112
ENCODING 112
SWIDTH 61 0
DWIDTH 10 0
BBX 8 9 1 0
BITMAP
FE
C3
C3
C3
FE
C0
C0
C0
E0
ENDCHAR

STARTCHAR char113
ENCODING 113
SWIDTH 11 0
DWIDTH 12 0
BBX 10 10 0 -1
BITMAP
1E00
3180
6080
C0C0
C0C0
C0C0
40C0
6780
1F00
0080
ENDCHAR

STARTCHAR char114
ENCODING 114
SWIDTH 5 0
DWIDTH 11 0
BBX 9 9 1 0
BITMAP
FE00
C300
C300
C300
FE00
CC00
C600
C200
A380
ENDCHAR

STARTCHAR char115
ENCODING 115
SWIDTH 61 0
DWIDTH 10 0
BBX 9 9 0 0
BITMAP
3F00
6380
C100
C000
7F00
0180
8180
E300
3E00
ENDCHAR

STARTCHAR char116
ENCODING 116
SWIDTH 61 0
DWIDTH 10 0
BBX 10 9 -1 0
BITMAP
FF80
8C40
0C00
0C00
0C00
0C00
0C00
0C00
0C00
ENDCHAR

STARTCHAR char117
ENCODING 117
SWIDTH 11 0
DWIDTH 12 0
BBX 9 9 1 0
BITMAP
C180
C180
C180
C180
C180
C180
C180
C380
7E00
ENDCHAR

STARTCHAR char118
ENCODING 118
SWIDTH 61 0
DWIDTH 10 0
BBX 9 9 0 0
BITMAP
C180
C100
4100
2300
2200
3600
1400
1C00
1C00
ENDCHAR

STARTCHAR char119
ENCODING 119
SWIDTH 29 0
DWIDTH 15 0
BBX 13 9 0 0
BITMAP
C718
C610
4710
4530
6D20
29A0
28A0
38C0
38E0
ENDCHAR

STARTCHAR char120
ENCODING 120
SWIDTH 55 0
DWIDTH 9 0
BBX 9 9 0 0
BITMAP
C300
6200
2400
3C00
1800
1800
2400
6600
E380
ENDCHAR

STARTCHAR char121
ENCODING 121
SWIDTH 61 0
DWIDTH 10 0
BBX 8 9 0 0
BITMAP
C3
43
66
2C
1C
18
18
18
1C
ENDCHAR

STARTCHAR char122
ENCODING 122
SWIDTH 61 0
DWIDTH 10 0
BBX 8 9 0 0
BITMAP
8F
FF
02
04
08
10
30
60
FF
ENDCHAR

STARTCHAR char123
ENCODING 123
SWIDTH 30 0
DWIDTH 5 0
BBX 3 13 1 -3
BITMAP
E0
C0
40
40
40
80
80
C0
C0
C0
C0
C0
60
ENDCHAR

STARTCHAR char124
ENCODING 124
SWIDTH 24 0
DWIDTH 4 0
BBX 2 11 1 0
BITMAP
C0
C0
C0
C0
C0
C0
C0
C0
C0
C0
C0
ENDCHAR

STARTCHAR char125
ENCODING 125
SWIDTH 30 0
DWIDTH 5 0
BBX 3 13 1 -3
BITMAP
C0
C0
C0
C0
C0
60
60
C0
40
40
C0
C0
80
ENDCHAR

STARTCHAR char126
ENCODING 126
SWIDTH 0 0
DWIDTH 0 0
BBX 7 2 -4 11
BITMAP
72
4C
ENDCHAR

STARTCHAR char128
ENCODING 128
SWIDTH 23 0
DWIDTH 14 0
BBX 13 10 0 0
BITMAP
0FE0
1830
3010
FFC0
6000
FFC0
2000
3018
1830
0FC0
ENDCHAR

STARTCHAR char130
ENCODING 130
SWIDTH 18 0
DWIDTH 3 0
BBX 2 3 0 -2
BITMAP
C0
40
40
ENDCHAR

STARTCHAR char131
ENCODING 131
SWIDTH 0 0
DWIDTH 0 0
BBX 4 2 -2 11
BITMAP
60
90
ENDCHAR

STARTCHAR char132
ENCODING 132
SWIDTH 30 0
DWIDTH 5 0
BBX 4 4 0 -2
BITMAP
F0
F0
50
50
ENDCHAR

STARTCHAR char133
ENCODING 133
SWIDTH 36 0
DWIDTH 16 0
BBX 12 1 1 0
BITMAP
C630
ENDCHAR

STARTCHAR char134
ENCODING 134
SWIDTH 55 0
DWIDTH 9 0
BBX 9 13 0 -3
BITMAP
1800
1800
9880
FF00
1800
1800
1800
1800
1000
1800
1800
1800
1800
ENDCHAR

STARTCHAR char136
ENCODING 136
SWIDTH 0 0
DWIDTH 0 0
BBX 6 3 -3 8
BITMAP
30
58
CC
ENDCHAR

STARTCHAR char138
ENCODING 138
SWIDTH 29 0
DWIDTH 15 0
BBX 0 0 0 0
BITMAP
ENDCHAR

STARTCHAR char139
ENCODING 139
SWIDTH 30 0
DWIDTH 5 0
BBX 3 4 1 2
BITMAP
60
C0
C0
60
ENDCHAR

STARTCHAR char140
ENCODING 140
SWIDTH 48 0
DWIDTH 18 0
BBX 16 11 0 0
BITMAP
0003
1FFF
7180
6180
C180
C1F8
C184
C180
6180
3182
1FFE
ENDCHAR

STARTCHAR char141
ENCODING 141
SWIDTH 29 0
DWIDTH 15 0
BBX 0 0 0 0
BITMAP
ENDCHAR

STARTCHAR char145
ENCODING 145
SWIDTH 18 0
DWIDTH 3 0
BBX 2 3 0 9
BITMAP
80
80
C0
ENDCHAR

STARTCHAR char146
ENCODING 146
SWIDTH 18 0
DWIDTH 3 0
BBX 2 3 0 7
BITMAP
C0
40
40
ENDCHAR

STARTCHAR char147
ENCODING 147
SWIDTH 30 0
DWIDTH 5 0
BBX 4 3 0 7
BITMAP
F0
F0
40
ENDCHAR

STARTCHAR char148
ENCODING 148
SWIDTH 30 0
DWIDTH 5 0
BBX 4 3 0 7
BITMAP
F0
50
50
ENDCHAR

STARTCHAR char149
ENCODING 149
SWIDTH 30 0
DWIDTH 5 0
BBX 4 4 0 3
BITMAP
60
F0
F0
60
ENDCHAR

STARTCHAR char150
ENCODING 150
SWIDTH 17 0
DWIDTH 13 0
BBX 11 1 0 4
BITMAP
FFE0
ENDCHAR

STARTCHAR char151
ENCODING 151
SWIDTH 5 0
DWIDTH 11 0
BBX 9 1 0 4
BITMAP
FF80
ENDCHAR

STARTCHAR char152
ENCODING 152
SWIDTH 0 0
DWIDTH 0 0
BBX 6 2 -3 9
BITMAP
74
98
ENDCHAR

STARTCHAR char153
ENCODING 153
SWIDTH 23 0
DWIDTH 14 0
BBX 12 6 0 4
BITMAP
FE30
BE30
3370
3350
32F0
76B0
ENDCHAR

STARTCHAR char155
ENCODING 155
SWIDTH 30 0
DWIDTH 5 0
BBX 3 4 1 2
BITMAP
C0
60
60
80
ENDCHAR

STARTCHAR char156
ENCODING 156
SWIDTH 29 0
DWIDTH 15 0
BBX 13 9 0 0
BITMAP
1FF0
37F0
4600
C600
C7E0
C600
4600
6600
1FF8
ENDCHAR

STARTCHAR char157
ENCODING 157
SWIDTH 29 0
DWIDTH 15 0
BBX 0 0 0 0
BITMAP
ENDCHAR

STARTCHAR char159
ENCODING 159
SWIDTH 5 0
DWIDTH 11 0
BBX 11 13 0 0
BITMAP
3300
0000
0000
F0E0
6180
3300
1200
1E00
0C00
0C00
0C00
0C00
0A00
ENDCHAR

STARTCHAR char160
ENCODING 160
SWIDTH 43 0
DWIDTH 7 0
BBX 0 0 0 0
BITMAP
ENDCHAR

STARTCHAR char161
ENCODING 161
SWIDTH 24 0
DWIDTH 4 0
BBX 3 10 0 0
BITMAP
C0
00
00
40
40
80
C0
C0
C0
E0
ENDCHAR

STARTCHAR char162
ENCODING 162
SWIDTH 5 0
DWIDTH 11 0
BBX 10 11 0 -1
BITMAP
0C00
1E00
3DC0
6C80
CC00
C800
C800
4880
69C0
1F00
0400
ENDCHAR

STARTCHAR char163
ENCODING 163
SWIDTH 17 0
DWIDTH 13 0
BBX 11 10 0 0
BITMAP
1F80
3060
6020
6000
7F00
6100
6000
6000
6020
FFC0
ENDCHAR

STARTCHAR char164
ENCODING 164
SWIDTH 0 0
DWIDTH 0 0
BBX 4 3 -1 11
BITMAP
70
40
C0
ENDCHAR

STARTCHAR char165
ENCODING 165
SWIDTH 0 0
DWIDTH 0 0
BBX 6 3 -3 11
BITMAP
CC
68
30
ENDCHAR

STARTCHAR char166
ENCODING 166
SWIDTH 29 0
DWIDTH 15 0
BBX 0 0 0 0
BITMAP
ENDCHAR

STARTCHAR char167
ENCODING 167
SWIDTH 49 0
DWIDTH 8 0
BBX 7 13 0 -3
BITMAP
3C
66
60
30
5C
46
62
62
1E
0C
46
E6
3C
ENDCHAR

STARTCHAR char168
ENCODING 168
SWIDTH 0 0
DWIDTH 0 0
BBX 6 2 -3 10
BITMAP
04
CC
ENDCHAR

STARTCHAR char169
ENCODING 169
SWIDTH 11 0
DWIDTH 12 0
BBX 11 10 0 0
BITMAP
0E00
3180
2F80
5940
F160
F060
F060
5F40
2080
1F00
ENDCHAR

STARTCHAR char170
ENCODING 170
SWIDTH 0 0
DWIDTH 0 0
BBX 6 1 -3 12
BITMAP
CC
ENDCHAR

STARTCHAR char171
ENCODING 171
SWIDTH 43 0
DWIDTH 7 0
BBX 5 6 1 1
BITMAP
50
50
A0
F0
50
78
ENDCHAR

STARTCHAR char172
ENCODING 172
SWIDTH 5 0
DWIDTH 11 0
BBX 10 4 0 0
BITMAP
FFC0
00C0
00C0
00C0
ENDCHAR

STARTCHAR char174
ENCODING 174
SWIDTH 11 0
DWIDTH 12 0
BBX 11 10 0 0
BITMAP
0E00
3180
3E80
5B40
D360
DC60
DE60
5B40
20C0
1F00
ENDCHAR

STARTCHAR char176
ENCODING 176
SWIDTH 43 0
DWIDTH 7 0
BBX 6 5 -1 5
BITMAP
30
48
CC
48
30
ENDCHAR

STARTCHAR char177
ENCODING 177
SWIDTH 55 0
DWIDTH 9 0
BBX 8 9 0 0
BITMAP
18
18
18
FF
18
18
18
00
FF
ENDCHAR

STARTCHAR char179
ENCODING 179
SWIDTH 29 0
DWIDTH 15 0
BBX 0 0 0 0
BITMAP
ENDCHAR

STARTCHAR char180
ENCODING 180
SWIDTH 0 0
DWIDTH 0 0
BBX 3 2 -1 9
BITMAP
40
40
ENDCHAR

STARTCHAR char182
ENCODING 182
SWIDTH 61 0
DWIDTH 10 0
BBX 7 12 1 -2
BITMAP
7E
E6
E6
E6
66
26
26
26
26
26
26
26
ENDCHAR

STARTCHAR char183
ENCODING 183
SWIDTH 18 0
DWIDTH 3 0
BBX 2 1 0 4
BITMAP
C0
ENDCHAR

STARTCHAR char184
ENCODING 184
SWIDTH 0 0
DWIDTH 0 0
BBX 4 3 -2 -3
BITMAP
70
30
60
ENDCHAR

STARTCHAR char185
ENCODING 185
SWIDTH 29 0
DWIDTH 15 0
BBX 0 0 0 0
BITMAP
ENDCHAR

STARTCHAR char186
ENCODING 186
SWIDTH 0 0
DWIDTH 0 0
BBX 7 2 -4 11
BITMAP
72
4C
ENDCHAR

STARTCHAR char187
ENCODING 187
SWIDTH 43 0
DWIDTH 7 0
BBX 4 6 1 1
BITMAP
A0
50
50
50
A0
A0
ENDCHAR

STARTCHAR char189
ENCODING 189
SWIDTH 29 0
DWIDTH 15 0
BBX 0 0 0 0
BITMAP
ENDCHAR

STARTCHAR char191
ENCODING 191
SWIDTH 49 0
DWIDTH 8 0
BBX 7 10 0 0
BITMAP
30
00
00
20
20
20
C0
C4
CE
78
ENDCHAR

STARTCHAR char192
ENCODING 192
SWIDTH 17 0
DWIDTH 13 0
BBX 12 13 0 0
BITMAP
1800
0800
0400
0E00
0E00
1B00
1300
1100
3180
3F80
60C0
4040
E070
ENDCHAR

STARTCHAR char193
ENCODING 193
SWIDTH 17 0
DWIDTH 13 0
BBX 12 13 0 0
BITMAP
0600
0400
0400
0E00
0E00
1B00
1300
1100
3180
3F80
60C0
4040
E070
ENDCHAR

STARTCHAR char194
ENCODING 194
SWIDTH 17 0
DWIDTH 13 0
BBX 12 13 0 0
BITMAP
0C00
0A00
0000
0E00
0E00
1B00
1300
1100
3180
3F80
60C0
4040
E070
ENDCHAR

STARTCHAR char195
ENCODING 195
SWIDTH 17 0
DWIDTH 13 0
BBX 12 13 0 0
BITMAP
1D80
2700
0000
0E00
0E00
1B00
1300
1100
3180
3F80
60C0
4040
E070
ENDCHAR

STARTCHAR char196
ENCODING 196
SWIDTH 17 0
DWIDTH 13 0
BBX 12 11 0 0
BITMAP
69C0
0E40
0A00
1B00
1300
3180
3180
3FC0
60C0
4040
E070
ENDCHAR

STARTCHAR char197
ENCODING 197
SWIDTH 17 0
DWIDTH 13 0
BBX 11 13 0 0
BITMAP
1F00
1F00
1F80
0E00
1B00
1B00
1300
1100
3180
3F80
60C0
C040
E060
ENDCHAR

STARTCHAR char198
ENCODING 198
SWIDTH 42 0
DWIDTH 17 0
BBX 16 10 0 0
BITMAP
07FE
0F00
0B00
1B00
13F0
3308
3F00
4100
4101
81FE
ENDCHAR

STARTCHAR char199
ENCODING 199
SWIDTH 23 0
DWIDTH 14 0
BBX 12 12 0 -2
BITMAP
1FC0
3060
6020
C000
C000
C000
C000
6020
7860
07C0
0700
0300
ENDCHAR

STARTCHAR char200
ENCODING 200
SWIDTH 11 0
DWIDTH 12 0
BBX 10 14 1 0
BITMAP
3000
1000
0800
0080
FF80
C000
C000
C000
FE00
C100
C000
C000
C040
FF80
ENDCHAR

STARTCHAR char201
ENCODING 201
SWIDTH 11 0
DWIDTH 12 0
BBX 10 13 1 0
BITMAP
0C00
0800
0880
FF80
C000
C000
C000
FE00
C100
C000
C000
C040
FF80
ENDCHAR

STARTCHAR char202
ENCODING 202
SWIDTH 11 0
DWIDTH 12 0
BBX 10 13 1 0
BITMAP
1800
2400
0080
FF80
C000
C000
C000
FE00
C100
C000
C000
C040
FF80
ENDCHAR

STARTCHAR char203
ENCODING 203
SWIDTH 11 0
DWIDTH 12 0
BBX 10 13 1 0
BITMAP
6600
0000
0080
FF80
C000
C000
C000
FE00
C100
C000
C000
C040
FF80
ENDCHAR

STARTCHAR char204
ENCODING 204
SWIDTH 24 0
DWIDTH 4 0
BBX 5 14 -1 0
BITMAP
60
60
30
00
30
30
30
30
30
30
30
30
30
38
ENDCHAR

STARTCHAR char205
ENCODING 205
SWIDTH 24 0
DWIDTH 4 0
BBX 4 14 1 0
BITMAP
70
C0
C0
00
C0
C0
C0
C0
C0
C0
C0
C0
C0
E0
ENDCHAR

STARTCHAR char206
ENCODING 206
SWIDTH 24 0
DWIDTH 4 0
BBX 5 13 -1 0
BITMAP
60
70
00
60
60
60
60
60
60
60
60
60
70
ENDCHAR

STARTCHAR char207
ENCODING 207
SWIDTH 24 0
DWIDTH 4 0
BBX 6 13 -1 0
BITMAP
C8
00
00
30
30
30
30
30
30
30
30
30
38
ENDCHAR

STARTCHAR char209
ENCODING 209
SWIDTH 23 0
DWIDTH 14 0
BBX 11 13 1 0
BITMAP
3900
2600
0000
E0C0
E0C0
D0C0
C8C0
CCC0
C4C0
C2C0
C1C0
C0C0
E0E0
ENDCHAR

STARTCHAR char210
ENCODING 210
SWIDTH 29 0
DWIDTH 15 0
BBX 13 14 0 0
BITMAP
0C00
0400
0200
0000
1FC0
3060
6030
C018
C018
C018
C018
6030
30E0
1F80
ENDCHAR

STARTCHAR char211
ENCODING 211
SWIDTH 29 0
DWIDTH 15 0
BBX 13 14 0 0
BITMAP
0380
0200
0200
0000
1FC0
3060
6030
C018
C018
C018
C018
6030
30E0
1F80
ENDCHAR

STARTCHAR char212
ENCODING 212
SWIDTH 29 0
DWIDTH 15 0
BBX 13 13 0 0
BITMAP
0600
0900
0000
1FC0
3060
6030
C018
C018
C018
C018
6030
30E0
1F80
ENDCHAR

STARTCHAR char213
ENCODING 213
SWIDTH 29 0
DWIDTH 15 0
BBX 13 13 0 0
BITMAP
0CC0
1300
0000
1FC0
3060
6030
C018
C018
C018
C018
6030
30E0
1F80
ENDCHAR

STARTCHAR char214
ENCODING 214
SWIDTH 29 0
DWIDTH 15 0
BBX 13 11 0 0
BITMAP
C018
CFD8
3060
6030
C018
C018
C018
C018
6030
30E0
1F80
ENDCHAR

STARTCHAR char216
ENCODING 216
SWIDTH 29 0
DWIDTH 15 0
BBX 13 11 0 0
BITMAP
0008
1F90
3070
60B0
C118
C218
C418
C818
7030
70E0
8F80
ENDCHAR

STARTCHAR char217
ENCODING 217
SWIDTH 17 0
DWIDTH 13 0
BBX 11 14 0 0
BITMAP
0800
0C00
0400
0000
6040
6040
6040
6040
6040
6040
6060
6060
30C0
1F80
ENDCHAR

STARTCHAR char218
ENCODING 218
SWIDTH 17 0
DWIDTH 13 0
BBX 11 14 0 0
BITMAP
0380
0600
0400
0000
6040
6040
6040
6040
6040
6040
6060
6060
30C0
1F80
ENDCHAR

STARTCHAR char219
ENCODING 219
SWIDTH 17 0
DWIDTH 13 0
BBX 11 13 0 0
BITMAP
0E00
0A00
0000
6040
6040
6040
6040
6040
6040
6060
6060
30C0
1F80
ENDCHAR

STARTCHAR char220
ENCODING 220
SWIDTH 17 0
DWIDTH 13 0
BBX 12 11 0 0
BITMAP
9B50
6060
6060
6060
6060
6060
6060
6060
6060
20C0
1F80
ENDCHAR

STARTCHAR char222
ENCODING 222
SWIDTH 29 0
DWIDTH 15 0
BBX 0 0 0 0
BITMAP
ENDCHAR

STARTCHAR char223
ENCODING 223
SWIDTH 60 0
DWIDTH 20 0
BBX 19 9 0 0
BITMAP
3F0FC0
6398E0
C13040
C03000
7F1FC0
018060
819060
E330C0
3E0F80
ENDCHAR

STARTCHAR char224
ENCODING 224
SWIDTH 61 0
DWIDTH 10 0
BBX 9 11 0 0
BITMAP
1000
1000
1C00
1C00
1400
3600
2600
6200
7F00
4180
C180
ENDCHAR

STARTCHAR char225
ENCODING 225
SWIDTH 61 0
DWIDTH 10 0
BBX 9 11 0 0
BITMAP
0800
0800
1C00
1C00
1400
3600
2600
6200
7F00
4180
C180
ENDCHAR

STARTCHAR char226
ENCODING 226
SWIDTH 61 0
DWIDTH 10 0
BBX 9 12 0 0
BITMAP
1800
1C00
2600
1C00
1C00
1400
3600
2600
6200
7F00
4180
C180
ENDCHAR

STARTCHAR char227
ENCODING 227
SWIDTH 61 0
DWIDTH 10 0
BBX 9 11 0 0
BITMAP
3A00
2C00
1C00
1C00
1400
3600
2600
6200
7F00
4180
C180
ENDCHAR

STARTCHAR char228
ENCODING 228
SWIDTH 61 0
DWIDTH 10 0
BBX 9 11 0 0
BITMAP
3600
1000
1C00
1C00
1400
3600
2600
6200
7F00
4100
C180
ENDCHAR

STARTCHAR char229
ENCODING 229
SWIDTH 61 0
DWIDTH 10 0
BBX 9 11 0 0
BITMAP
3C00
3C00
1C00
3C00
3400
3400
2600
6200
7F00
C100
C180
ENDCHAR

STARTCHAR char230
ENCODING 230
SWIDTH 23 0
DWIDTH 14 0
BBX 13 9 0 0
BITMAP
1FF0
1608
1600
2400
27E0
6600
7E00
C400
87F0
ENDCHAR

STARTCHAR char231
ENCODING 231
SWIDTH 5 0
DWIDTH 11 0
BBX 10 12 0 -3
BITMAP
1F00
3180
6080
C000
C000
C000
C040
70C0
0F00
0E00
0600
1C00
ENDCHAR

STARTCHAR char232
ENCODING 232
SWIDTH 61 0
DWIDTH 10 0
BBX 8 11 1 0
BITMAP
20
10
FF
81
80
80
FC
C0
C0
C0
FF
ENDCHAR

STARTCHAR char233
ENCODING 233
SWIDTH 61 0
DWIDTH 10 0
BBX 8 11 1 0
BITMAP
18
10
FF
81
80
80
FC
C0
C0
C0
FF
ENDCHAR

STARTCHAR char234
ENCODING 234
SWIDTH 61 0
DWIDTH 10 0
BBX 8 12 1 0
BITMAP
30
38
48
FF
81
80
80
FC
C0
C0
C0
FF
ENDCHAR

STARTCHAR char235
ENCODING 235
SWIDTH 61 0
DWIDTH 10 0
BBX 8 12 1 0
BITMAP
04
6C
00
FF
C1
C0
80
FC
C0
C0
80
FF
ENDCHAR

STARTCHAR char236
ENCODING 236
SWIDTH 24 0
DWIDTH 4 0
BBX 4 11 0 0
BITMAP
C0
60
60
60
60
60
60
60
60
60
70
ENDCHAR

STARTCHAR char237
ENCODING 237
SWIDTH 24 0
DWIDTH 4 0
BBX 3 11 1 0
BITMAP
40
40
C0
C0
C0
C0
C0
C0
C0
C0
E0
ENDCHAR

STARTCHAR char238
ENCODING 238
SWIDTH 24 0
DWIDTH 4 0
BBX 5 12 0 0
BITMAP
60
70
90
F8
60
60
60
60
60
60
60
70
ENDCHAR

STARTCHAR char239
ENCODING 239
SWIDTH 24 0
DWIDTH 4 0
BBX 5 11 -1 0
BITMAP
D8
40
60
30
30
30
30
30
30
30
68
ENDCHAR

STARTCHAR char241
ENCODING 241
SWIDTH 11 0
DWIDTH 12 0
BBX 10 11 1 0
BITMAP
3200
4C00
C180
C180
E180
D180
D980
8D80
8780
8380
81C0
ENDCHAR

STARTCHAR char242
ENCODING 242
SWIDTH 11 0
DWIDTH 12 0
BBX 11 11 0 0
BITMAP
0800
0800
1E00
3180
60C0
C060
C060
C060
4040
6180
1F00
ENDCHAR

STARTCHAR char243
ENCODING 243
SWIDTH 11 0
DWIDTH 12 0
BBX 11 11 0 0
BITMAP
0400
0400
1E00
3180
60C0
C060
C060
C060
4040
6180
1F00
ENDCHAR

STARTCHAR char244
ENCODING 244
SWIDTH 11 0
DWIDTH 12 0
BBX 11 11 0 0
BITMAP
0C00
1200
1E00
3180
60C0
C060
C060
C060
4040
6180
1F00
ENDCHAR

STARTCHAR char245
ENCODING 245
SWIDTH 11 0
DWIDTH 12 0
BBX 11 11 0 0
BITMAP
1D00
1600
1E00
3180
60C0
C060
C060
C060
4040
6180
1F00
ENDCHAR

STARTCHAR char246
ENCODING 246
SWIDTH 11 0
DWIDTH 12 0
BBX 11 11 0 0
BITMAP
1B00
0800
1E00
3180
60C0
C060
C060
C060
4040
6080
1F00
ENDCHAR

STARTCHAR char247
ENCODING 247
SWIDTH 55 0
DWIDTH 9 0
BBX 7 5 0 1
BITMAP
18
00
FE
00
18
ENDCHAR

STARTCHAR char248
ENCODING 248
SWIDTH 11 0
DWIDTH 12 0
BBX 11 9 0 0
BITMAP
1F20
33C0
61C0
C260
C460
C860
D0C0
6180
9F00
ENDCHAR

STARTCHAR char249
ENCODING 249
SWIDTH 11 0
DWIDTH 12 0
BBX 9 11 1 0
BITMAP
1000
1000
C180
C180
C180
C180
C180
C180
C180
C380
7E00
ENDCHAR

STARTCHAR char250
ENCODING 250
SWIDTH 11 0
DWIDTH 12 0
BBX 9 11 1 0
BITMAP
0800
0800
C180
C180
C180
C180
C180
C180
C180
C380
7E00
ENDCHAR

STARTCHAR char251
ENCODING 251
SWIDTH 11 0
DWIDTH 12 0
BBX 9 12 1 0
BITMAP
1800
2C00
2400
C180
C180
C180
C180
C180
C180
C180
C380
7E00
ENDCHAR

STARTCHAR char252
ENCODING 252
SWIDTH 11 0
DWIDTH 12 0
BBX 9 11 1 0
BITMAP
3600
0000
C180
C180
C180
C180
C180
C180
C180
C300
7E00
ENDCHAR

STARTCHAR char255
ENCODING 255
SWIDTH 61 0
DWIDTH 10 0
BBX 8 11 0 0
BITMAP
66
00
C3
43
66
36
1C
08
08
08
1C
ENDCHAR
ENDFONT
